<svg width="89" height="32" viewBox="0 0 89 32" fill="none" xmlns="http://www.w3.org/2000/svg">
<g clip-path="url(#clip0_2063_28756)">
<path d="M70.8956 16.3387H79.5946C79.5218 14.2641 78.1387 12.4078 75.2269 12.4078C72.5699 12.4078 71.0411 14.4461 70.8956 16.3387ZM80.0678 20.9613L83.6348 22.0896C82.6884 25.1834 79.8858 27.6949 75.6273 27.6949C70.8228 27.6949 66.5642 24.2007 66.5642 18.195C66.5642 12.5898 70.7136 8.8772 75.1905 8.8772C80.6502 8.8772 83.8532 12.4806 83.8532 18.0858C83.8532 18.7774 83.7804 19.3598 83.744 19.4326H70.7864C70.8955 22.126 73.0066 24.0551 75.6273 24.0551C78.1751 24.0551 79.4854 22.7084 80.0678 20.9613Z" fill="#04382F"/>
<path d="M66.2686 9.42358L59.3166 27.1493H55.0945L47.8877 9.42358H52.5466L57.2419 22.09L61.8281 9.42358H66.2686Z" fill="#04382F"/>
<path d="M34.5111 16.3387H43.2102C43.1374 14.2641 41.7543 12.4078 38.8425 12.4078C36.1854 12.4078 34.6567 14.4461 34.5111 16.3387ZM43.6834 20.9613L47.2504 22.0896C46.304 25.1834 43.5014 27.6949 39.2429 27.6949C34.4384 27.6949 30.1798 24.2007 30.1798 18.195C30.1798 12.5898 34.3292 8.8772 38.8061 8.8772C44.2658 8.8772 47.4688 12.4806 47.4688 18.0858C47.4688 18.7774 47.396 19.3598 47.3596 19.4326H34.402C34.5111 22.126 36.6222 24.0551 39.2429 24.0551C41.7907 24.0551 43.101 22.7084 43.6834 20.9613Z" fill="#04382F"/>
<path d="M24.624 4V9.42327H28.3002V13.1722H24.624V21.3982C24.624 22.9633 25.3155 23.6184 26.8806 23.6184C27.463 23.6184 28.1546 23.5092 28.3366 23.4728V26.967C28.0818 27.0762 27.281 27.3674 25.7523 27.3674C22.4765 27.3674 20.4382 25.4019 20.4382 22.0897V13.1722C20.4382 13.1722 20.4382 8.22214 20.4382 6.65704L20.4382 4H24.624Z" fill="#04382F"/>
<path d="M4.15038 22.6497L7.82656 21.6305C7.97215 23.232 9.17327 24.6515 11.4299 24.6515C13.177 24.6515 14.087 23.7052 14.087 22.6133C14.087 21.6669 13.4318 20.939 12.0123 20.6478L9.39166 20.0654C6.26145 19.3739 4.62355 17.3356 4.62355 14.8969C4.62355 11.8031 7.46258 9.18248 11.1388 9.18248C16.0889 9.18248 17.6904 12.3855 17.9815 14.1326L14.4146 15.1517C14.269 14.1326 13.5046 12.4947 11.1388 12.4947C9.64645 12.4947 8.59091 13.441 8.59091 14.533C8.59091 15.4793 9.28247 16.1709 10.3744 16.3892L13.0678 16.9352C16.4164 17.6632 18.1635 19.7014 18.1635 22.3221C18.1635 25.0155 15.9797 28.0001 11.4663 28.0001C6.33425 28.0001 4.36877 24.6516 4.15038 22.6497Z" fill="#04382F"/>
</g>
<defs>
<clipPath id="clip0_2063_28756">
<rect width="89" height="32" fill="white"/>
</clipPath>
</defs>
</svg>
