<svg width="88" height="32" viewBox="0 0 88 32" fill="none" xmlns="http://www.w3.org/2000/svg">
<g clip-path="url(#clip0_2063_28757)">
<path d="M70.445 16.3387H79.1441C79.0713 14.2641 77.6882 12.4078 74.7763 12.4078C72.1193 12.4078 70.5906 14.4461 70.445 16.3387ZM79.6172 20.9613L83.1842 22.0896C82.2379 25.1834 79.4352 27.6949 75.1767 27.6949C70.3722 27.6949 66.1136 24.2007 66.1136 18.195C66.1136 12.5898 70.263 8.8772 74.7399 8.8772C80.1996 8.8772 83.4026 12.4806 83.4026 18.0858C83.4026 18.7774 83.3298 19.3598 83.2934 19.4326H70.3358C70.445 22.126 72.5561 24.0551 75.1767 24.0551C77.7245 24.0551 79.0349 22.7084 79.6172 20.9613Z" fill="white"/>
<path d="M65.8178 9.42358L58.8658 27.1493H54.6437L47.4369 9.42358H52.0958L56.7911 22.09L61.3772 9.42358H65.8178Z" fill="white"/>
<path d="M34.0605 16.3387H42.7595C42.6867 14.2641 41.3036 12.4078 38.3918 12.4078C35.7348 12.4078 34.2061 14.4461 34.0605 16.3387ZM43.2327 20.9613L46.7997 22.0896C45.8534 25.1834 43.0507 27.6949 38.7922 27.6949C33.9877 27.6949 29.7291 24.2007 29.7291 18.195C29.7291 12.5898 33.8785 8.8772 38.3554 8.8772C43.8151 8.8772 47.0181 12.4806 47.0181 18.0858C47.0181 18.7774 46.9453 19.3598 46.9089 19.4326H33.9513C34.0605 22.126 36.1715 24.0551 38.7922 24.0551C41.34 24.0551 42.6503 22.7084 43.2327 20.9613Z" fill="white"/>
<path d="M24.1733 4V9.42327H27.8495V13.1722H24.1733V21.3982C24.1733 22.9633 24.8649 23.6184 26.43 23.6184C27.0123 23.6184 27.7039 23.5092 27.8859 23.4728V26.967C27.6311 27.0762 26.8303 27.3674 25.3016 27.3674C22.0258 27.3674 19.9875 25.4019 19.9875 22.0897V13.1722C19.9875 13.1722 19.9875 8.22214 19.9875 6.65704L19.9875 4H24.1733Z" fill="white"/>
<path d="M3.6997 22.6497L7.37587 21.6305C7.52146 23.232 8.72259 24.6515 10.9793 24.6515C12.7263 24.6515 13.6363 23.7052 13.6363 22.6133C13.6363 21.6669 12.9811 20.939 11.5616 20.6478L8.94098 20.0654C5.81077 19.3739 4.17287 17.3356 4.17287 14.8969C4.17287 11.8031 7.0119 9.18248 10.6881 9.18248C15.6382 9.18248 17.2397 12.3855 17.5309 14.1326L13.9639 15.1517C13.8183 14.1326 13.0539 12.4947 10.6881 12.4947C9.19576 12.4947 8.14023 13.441 8.14023 14.533C8.14023 15.4793 8.83179 16.1709 9.92372 16.3892L12.6172 16.9352C15.9658 17.6632 17.7128 19.7014 17.7128 22.3221C17.7128 25.0155 15.529 28.0001 11.0157 28.0001C5.88356 28.0001 3.91808 24.6516 3.6997 22.6497Z" fill="white"/>
</g>
<defs>
<clipPath id="clip0_2063_28757">
<rect width="88" height="32" fill="white"/>
</clipPath>
</defs>
</svg>
